<svg width="102" height="102" viewBox="0 0 102 102" fill="none" xmlns="http://www.w3.org/2000/svg">
    <circle cx="51" cy="51" r="38" fill="white"/>
    <path d="M53.4 46H48.6C46.68 46 45 47.6917 45 49.625V71.375C45 73.3083 46.68 75 48.6 75H53.4C55.32 75 57 73.3083 57 71.375V49.625C57 47.6917 55.32 46 53.4 46Z" fill="#696969"/>
    <path d="M53.4 39C55.32 39 57 37.3529 57 35.4706V30.5294C57 28.6471 55.32 27 53.4 27H48.6C46.68 27 45 28.6471 45 30.5294V35.4706C45 37.3529 46.68 39 48.6 39H53.4Z" fill="#696969"/>
</svg>
