<svg width="102" height="117" viewBox="0 0 102 117" fill="none" xmlns="http://www.w3.org/2000/svg">
    <path d="M102 51.1686C102 22.9293 79.1714 7.36577e-06 51 7.36577e-06C22.8286 7.36577e-06 0 22.9293 0 51.1686C0 66.6158 7.04284 80.6148 17.9714 90.0279C19.6714 91.476 21.6143 92.9242 23.8 94.3723C25.5 95.5792 27.4428 97.0273 30.1143 98.9582C39.1 105.475 46.1429 112.716 49.3 116.095C50.2714 117.302 51.9714 117.302 53.1857 116.095C56.3428 112.474 63.3857 105.475 72.3714 98.9582C74.8 97.2687 76.7429 95.8205 78.4429 94.6137C92.5286 85.442 102 69.5121 102 51.1686Z" fill="#696969"/>
</svg>
