<svg width="84" height="84" viewBox="0 0 84 84" fill="none" xmlns="http://www.w3.org/2000/svg">
<g filter="url(#filter0_d)">
<circle cx="42" cy="40" r="40" fill="#606060"/>
</g>
    <rect x="19.5" y="17.65" width="15" height="15" fill="white"/>
    <rect x="19.5" y="47.65" width="15" height="15" fill="white"/>
    <rect x="49.5" y="17.65" width="15" height="15" fill="white"/>
    <rect x="24.5" y="22.65" width="5" height="5" fill="#606060"/>
    <rect x="24.5" y="52.65" width="5" height="5" fill="#606060"/>
    <rect x="54.5" y="22.65" width="5" height="5" fill="#606060"/>
    <rect x="19.5" y="37.65" width="5" height="5" fill="white"/>
    <rect x="29.5" y="37.65" width="5" height="5" fill="white"/>
    <rect x="39.5" y="17.65" width="5" height="5" fill="white"/>
    <rect x="39.5" y="27.65" width="5" height="5" fill="white"/>
    <rect x="39.5" y="57.65" width="5" height="5" fill="white"/>
    <rect x="44.5" y="52.65" width="5" height="5" fill="white"/>
    <rect x="49.5" y="47.65" width="5" height="5" fill="white"/>
    <rect x="59.5" y="47.65" width="5" height="5" fill="white"/>
    <rect x="49.5" y="57.65" width="15" height="5" fill="white"/>
    <polygon points="39.5 37.65, 39.5 52.65, 44.5 52.65, 44.5 47.65, 49.5 47.65, 49.5 42.65, 44.5 42.65, 44.5 37.65" fill="white"/>
    <polygon points="54.5 37.65, 54.5 47.65, 59.5 47.65, 59.5 42.65, 64.5 42.65, 64.5 37.65" fill="white"/>
<defs>
<filter id="filter0_d" x="0" y="0" width="84" height="84" filterUnits="userSpaceOnUse" color-interpolation-filters="sRGB">
<feFlood flood-opacity="0" result="BackgroundImageFix"/>
<feColorMatrix in="SourceAlpha" type="matrix" values="0 0 0 0 0 0 0 0 0 0 0 0 0 0 0 0 0 0 127 0"/>
<feOffset dy="2"/>
<feGaussianBlur stdDeviation="1"/>
<feColorMatrix type="matrix" values="0 0 0 0 0 0 0 0 0 0 0 0 0 0 0 0 0 0 0.25 0"/>
<feBlend mode="normal" in2="BackgroundImageFix" result="effect1_dropShadow"/>
<feBlend mode="normal" in="SourceGraphic" in2="effect1_dropShadow" result="shape"/>
</filter>
</defs>
</svg>
